<?xml version="1.0" encoding="UTF-8" standalone="no"?>
<!DOCTYPE svg PUBLIC "-//W3C//DTD SVG 1.1//EN" "http://www.w3.org/Graphics/SVG/1.1/DTD/svg11.dtd">
<svg version="1.1" xmlns="http://www.w3.org/2000/svg" xmlns:xlink="http://www.w3.org/1999/xlink" preserveAspectRatio="xMidYMid meet" viewBox="0 0 640 640" width="640" height="640"><defs><path d="M244.3 76.93C256.72 79.07 308.8 174.05 317.89 207.89C346.76 315.35 319.41 470.21 241.44 491.16C163.47 512.11 52.93 394.3 24.06 286.85C15.11 253.54 11.21 153.28 20.49 145.04C41.14 126.71 105.61 212.61 159.4 198.15C212.81 183.8 217.3 72.25 244.3 76.93Z" id="eD2UU3D9q"></path><path d="M616.97 116.02C627.25 123.31 633.32 231.45 626.94 265.92C606.68 375.32 515.26 503.28 435.87 488.58C356.49 473.89 307.51 319.94 327.76 210.53C334.04 176.62 373.74 84.47 385.66 81.04C412.19 73.4 433.34 178.69 488.12 188.83C542.5 198.89 594.62 100.17 616.97 116.02Z" id="i8lIZrZVX"></path><path d="M100.75 257.53L101.81 257.56L102.88 257.62L103.94 257.7L105 257.79L106.07 257.9L107.13 258.04L108.19 258.19L109.26 258.35L110.32 258.54L111.39 258.74L112.45 258.96L113.51 259.2L114.58 259.46L115.64 259.74L116.7 260.03L117.76 260.34L118.82 260.67L119.88 261.02L120.93 261.39L121.99 261.77L123.04 262.17L124.09 262.59L125.14 263.02L126.19 263.48L127.23 263.95L128.27 264.43L129.31 264.94L130.35 265.46L131.38 266L132.41 266.55L133.44 267.13L134.46 267.72L135.48 268.33L136.49 268.95L137.51 269.59L138.51 270.25L139.52 270.92L140.52 271.61L141.51 272.32L142.25 272.86L142.97 273.39L143.67 273.92L144.36 274.46L145.03 274.98L145.69 275.51L146.33 276.03L146.95 276.55L147.55 277.06L148.14 277.56L148.72 278.06L149.27 278.55L149.81 279.03L150.33 279.51L150.83 279.98L151.32 280.43L151.79 280.88L152.24 281.31L152.67 281.74L153.09 282.15L153.49 282.55L153.86 282.93L154.22 283.3L154.57 283.66L154.89 284L155.19 284.32L155.48 284.63L155.74 284.92L155.99 285.19L156.22 285.45L156.43 285.68L156.62 285.9L156.79 286.1L156.94 286.27L157.07 286.42L157.18 286.55L157.27 286.66L157.33 286.74L157.38 286.8L157.41 286.84L159.45 289.37L157.36 291.85L157.33 291.89L157.28 291.94L157.21 292.03L157.12 292.13L157.01 292.26L156.87 292.41L156.72 292.58L156.55 292.77L156.35 292.99L156.14 293.22L155.91 293.47L155.65 293.73L155.38 294.02L155.09 294.32L154.78 294.64L154.45 294.97L154.1 295.32L153.73 295.69L153.35 296.06L152.94 296.45L152.52 296.86L152.08 297.27L151.62 297.7L151.14 298.13L150.64 298.58L150.13 299.03L149.6 299.5L149.05 299.97L148.49 300.45L147.91 300.94L147.31 301.43L146.69 301.93L146.06 302.43L145.41 302.94L144.74 303.45L144.06 303.96L143.36 304.48L142.65 305L141.92 305.52L141.17 306.04L140.16 306.73L139.15 307.4L138.13 308.05L137.11 308.69L136.08 309.31L135.05 309.91L134.02 310.5L132.99 311.07L131.95 311.62L130.91 312.16L129.86 312.67L128.82 313.17L127.77 313.66L126.72 314.12L125.66 314.57L124.61 315L123.55 315.42L122.49 315.81L121.43 316.19L120.37 316.55L119.31 316.9L118.24 317.22L117.18 317.53L116.11 317.82L115.04 318.09L113.98 318.35L112.91 318.58L111.84 318.8L110.77 319L109.7 319.18L108.64 319.35L107.57 319.49L106.5 319.62L105.43 319.73L104.37 319.82L103.3 319.89L102.24 319.95L101.18 319.98L100.12 320L99.06 320L98 319.98L96.94 319.94L95.87 319.88L94.81 319.81L93.75 319.71L92.69 319.6L91.62 319.47L90.56 319.32L89.49 319.15L88.43 318.97L87.36 318.76L86.3 318.54L85.24 318.3L84.17 318.04L83.11 317.76L82.05 317.47L80.99 317.16L79.93 316.83L78.87 316.48L77.82 316.12L76.76 315.73L75.71 315.33L74.66 314.92L73.61 314.48L72.57 314.03L71.52 313.56L70.48 313.07L69.44 312.57L68.41 312.04L67.37 311.51L66.34 310.95L65.32 310.38L64.29 309.79L63.27 309.18L62.26 308.56L61.24 307.91L60.24 307.26L59.23 306.58L58.23 305.89L57.24 305.18L56.5 304.65L55.78 304.11L55.08 303.58L54.39 303.05L53.72 302.52L53.06 302L52.43 301.47L51.8 300.96L51.2 300.45L50.61 299.94L50.03 299.44L49.48 298.95L48.94 298.47L48.42 297.99L47.92 297.53L47.43 297.07L46.96 296.63L46.51 296.19L46.08 295.77L45.66 295.36L45.27 294.96L44.89 294.57L44.53 294.2L44.19 293.85L43.86 293.51L43.56 293.18L43.27 292.87L43.01 292.58L42.76 292.31L42.53 292.06L42.32 291.82L42.13 291.6L41.96 291.41L41.81 291.23L41.69 291.08L41.58 290.95L41.49 290.84L41.42 290.76L41.37 290.7L41.34 290.67L39.3 288.14L41.39 285.65L41.7 285.29L42.01 284.93L42.33 284.57L42.66 284.21L42.99 283.84L43.32 283.48L43.66 283.12L44 282.77L44.35 282.41L44.71 282.05L45.06 281.69L45.43 281.33L45.79 280.97L46.17 280.62L46.55 280.26L46.93 279.9L47.32 279.55L47.71 279.19L48.11 278.84L48.51 278.48L48.92 278.13L49.33 277.77L49.74 277.42L50.17 277.07L50.59 276.71L51.03 276.36L51.46 276.01L51.9 275.66L52.35 275.3L52.8 274.95L53.26 274.6L53.72 274.25L54.18 273.9L54.65 273.55L55.13 273.2L55.61 272.85L56.1 272.51L56.59 272.16L57.08 271.81L57.58 271.46L58.59 270.78L59.61 270.11L60.62 269.45L61.64 268.81L62.67 268.19L63.7 267.59L64.73 267.01L65.77 266.44L66.8 265.88L67.84 265.35L68.89 264.83L69.93 264.33L70.98 263.85L72.03 263.38L73.09 262.93L74.14 262.5L75.2 262.09L76.26 261.69L77.32 261.31L78.38 260.95L79.45 260.61L80.51 260.28L81.58 259.98L82.64 259.68L83.71 259.41L84.78 259.16L85.84 258.92L86.91 258.7L87.98 258.5L89.05 258.32L90.12 258.16L91.18 258.01L92.25 257.88L93.32 257.77L94.38 257.68L95.45 257.61L96.51 257.56L97.57 257.52L98.64 257.5L99.7 257.51L100.75 257.53ZM97.31 265.62L96.17 265.67L95.04 265.74L93.93 265.84L92.82 265.96L91.72 266.1L90.63 266.26L89.55 266.44L88.49 266.64L87.43 266.86L86.39 267.1L85.35 267.35L84.33 267.63L83.32 267.91L82.33 268.21L81.34 268.53L80.37 268.85L79.41 269.19L78.47 269.55L77.53 269.91L76.62 270.28L75.71 270.66L74.82 271.06L73.95 271.46L73.08 271.86L72.24 272.28L71.41 272.69L70.59 273.12L69.79 273.55L69 273.98L68.24 274.41L67.48 274.85L66.75 275.29L66.03 275.72L65.33 276.16L64.64 276.6L63.97 277.03L63.32 277.47L62.69 277.9L62.27 278.19L61.85 278.48L61.43 278.78L61.03 279.07L60.62 279.36L60.22 279.66L59.83 279.95L59.45 280.24L59.06 280.53L58.69 280.82L58.32 281.11L57.96 281.39L57.6 281.68L57.25 281.96L56.9 282.24L56.56 282.52L56.23 282.8L55.9 283.07L55.57 283.34L55.26 283.61L54.95 283.88L54.64 284.15L54.35 284.41L54.05 284.67L53.77 284.92L53.49 285.17L53.22 285.42L52.95 285.66L52.69 285.9L52.44 286.14L52.19 286.37L51.95 286.6L51.72 286.82L51.49 287.04L51.27 287.26L51.05 287.47L50.85 287.67L50.65 287.87L50.45 288.06L50.27 288.25L50.45 288.44L50.64 288.64L50.84 288.84L51.04 289.05L51.25 289.26L51.46 289.48L51.69 289.71L51.92 289.93L52.15 290.17L52.39 290.4L52.64 290.64L52.9 290.89L53.16 291.14L53.43 291.39L53.7 291.65L53.98 291.91L54.27 292.18L54.56 292.44L54.86 292.71L55.16 292.99L55.47 293.26L55.79 293.54L56.11 293.82L56.44 294.11L56.78 294.39L57.12 294.68L57.46 294.97L57.81 295.26L58.17 295.56L58.54 295.85L58.91 296.15L59.28 296.45L59.66 296.75L60.05 297.05L60.44 297.35L60.84 297.65L61.24 297.95L61.65 298.25L62.06 298.55L62.48 298.86L63.1 299.3L63.74 299.74L64.4 300.19L65.08 300.64L65.77 301.1L66.48 301.55L67.21 302L67.95 302.45L68.71 302.9L69.48 303.35L70.28 303.79L71.08 304.23L71.91 304.67L72.74 305.1L73.6 305.52L74.46 305.94L75.35 306.35L76.24 306.75L77.15 307.14L78.08 307.53L79.02 307.9L79.97 308.26L80.93 308.6L81.91 308.94L82.9 309.26L83.9 309.57L84.92 309.86L85.95 310.13L86.99 310.39L88.04 310.63L89.1 310.85L90.17 311.06L91.26 311.24L92.35 311.41L93.46 311.55L94.57 311.67L95.7 311.77L96.84 311.84L97.98 311.89L99.14 311.91L100.29 311.91L101.44 311.89L102.58 311.84L103.71 311.76L104.83 311.66L105.93 311.54L107.03 311.4L108.12 311.24L109.2 311.06L110.26 310.86L111.32 310.64L112.37 310.4L113.4 310.15L114.42 309.88L115.43 309.59L116.42 309.29L117.41 308.98L118.38 308.65L119.34 308.31L120.28 307.96L121.22 307.59L122.14 307.22L123.04 306.84L123.93 306.45L124.81 306.05L125.67 305.64L126.51 305.23L127.35 304.81L128.16 304.39L128.96 303.96L129.75 303.53L130.52 303.09L131.27 302.66L132 302.22L132.72 301.78L133.43 301.34L134.11 300.9L134.78 300.47L135.43 300.04L136.06 299.61L136.48 299.31L136.9 299.02L137.32 298.73L137.73 298.43L138.13 298.14L138.53 297.85L138.92 297.56L139.31 297.27L139.69 296.97L140.06 296.69L140.43 296.4L140.8 296.11L141.15 295.83L141.51 295.54L141.85 295.26L142.19 294.98L142.53 294.71L142.85 294.43L143.18 294.16L143.49 293.89L143.8 293.62L144.11 293.36L144.41 293.1L144.7 292.84L144.98 292.58L145.26 292.33L145.53 292.08L145.8 291.84L146.06 291.6L146.31 291.36L146.56 291.13L146.8 290.9L147.04 290.68L147.26 290.46L147.48 290.25L147.7 290.04L147.9 289.83L148.11 289.64L148.3 289.44L148.49 289.25L148.3 289.06L148.11 288.86L147.92 288.66L147.71 288.45L147.5 288.24L147.29 288.02L147.06 287.8L146.84 287.57L146.6 287.34L146.36 287.1L146.11 286.86L145.85 286.61L145.59 286.36L145.32 286.11L145.05 285.85L144.77 285.59L144.48 285.33L144.19 285.06L143.89 284.79L143.59 284.52L143.28 284.24L142.96 283.96L142.64 283.68L142.31 283.4L141.98 283.11L141.64 282.82L141.29 282.53L140.94 282.24L140.58 281.95L140.22 281.65L139.85 281.35L139.47 281.06L139.09 280.76L138.71 280.46L138.31 280.16L137.92 279.86L137.51 279.55L137.11 279.25L136.69 278.95L136.27 278.65L135.65 278.21L135.01 277.76L134.35 277.31L133.68 276.86L132.98 276.41L132.27 275.96L131.55 275.5L130.8 275.05L130.04 274.6L129.27 274.15L128.48 273.71L127.67 273.27L126.85 272.83L126.01 272.4L125.15 271.98L124.29 271.56L123.4 271.15L122.51 270.75L121.6 270.36L120.67 269.98L119.74 269.61L118.78 269.25L117.82 268.9L116.84 268.56L115.85 268.24L114.85 267.94L113.83 267.65L112.81 267.37L111.77 267.11L110.71 266.87L109.65 266.65L108.58 266.44L107.49 266.26L106.4 266.1L105.29 265.96L104.18 265.84L103.05 265.74L101.91 265.66L100.77 265.61L99.61 265.59L98.46 265.59L97.31 265.62Z" id="a3t88gFfo"></path><path d="M119.51 277.8C116.75 278.04 114.47 279.86 114.05 282.39C113.54 285.46 115.98 288.43 119.49 289.01C121.34 289.31 123.11 288.9 124.45 287.99C124.58 289.29 124.55 290.61 124.33 291.94C122.79 301.26 112.91 307.38 102.26 305.62C91.62 303.86 84.24 294.88 85.79 285.56C87.33 276.25 97.21 270.12 107.85 271.88C112.53 272.66 116.57 274.83 119.51 277.8Z" id="e8rmBYdQu"></path><path d="M258.66 219.55L259.83 219.59L261 219.65L262.18 219.72L263.36 219.81L264.55 219.92L265.74 220.05L266.94 220.19L268.14 220.35L269.34 220.52L270.55 220.72L271.15 220.82L271.74 220.92L272.33 221.03L272.92 221.14L273.5 221.25L274.08 221.36L274.66 221.48L275.23 221.6L275.8 221.72L276.36 221.84L276.91 221.97L277.47 222.1L278.02 222.23L278.56 222.36L279.1 222.5L279.64 222.64L280.17 222.78L280.7 222.92L281.22 223.07L281.74 223.21L282.26 223.36L282.77 223.52L283.27 223.67L283.78 223.83L284.27 223.99L284.77 224.15L285.26 224.32L285.74 224.48L286.22 224.65L286.7 224.82L287.17 225L287.64 225.18L288.11 225.36L288.56 225.54L289.02 225.72L289.47 225.91L289.92 226.1L290.36 226.29L290.8 226.48L291.23 226.68L294.18 228.04L293.41 231.2L293.4 231.24L293.38 231.31L293.35 231.42L293.32 231.55L293.27 231.72L293.22 231.91L293.16 232.13L293.09 232.38L293.01 232.66L292.92 232.96L292.82 233.29L292.72 233.64L292.6 234.01L292.47 234.42L292.33 234.84L292.19 235.28L292.03 235.75L291.86 236.24L291.68 236.75L291.49 237.28L291.29 237.83L291.08 238.39L290.86 238.98L290.62 239.58L290.37 240.2L290.12 240.84L289.85 241.49L289.56 242.16L289.27 242.84L288.96 243.53L288.65 244.24L288.31 244.96L287.97 245.69L287.61 246.43L287.24 247.19L286.86 247.95L286.46 248.72L286.05 249.51L285.63 250.3L285.19 251.09L284.59 252.16L283.98 253.21L283.36 254.24L282.72 255.27L282.08 256.28L281.43 257.28L280.76 258.26L280.09 259.23L279.4 260.18L278.7 261.12L278 262.05L277.28 262.96L276.56 263.86L275.82 264.75L275.08 265.62L274.32 266.47L273.56 267.31L272.78 268.13L272 268.94L271.21 269.74L270.41 270.52L269.6 271.28L268.78 272.03L267.95 272.76L267.12 273.48L266.27 274.18L265.42 274.87L264.56 275.54L263.69 276.19L262.82 276.83L261.93 277.45L261.04 278.05L260.14 278.64L259.23 279.21L258.32 279.76L257.4 280.3L256.47 280.82L255.53 281.32L254.59 281.81L253.64 282.28L252.68 282.73L251.71 283.17L250.73 283.59L249.75 283.99L248.75 284.38L247.75 284.75L246.74 285.1L245.72 285.44L244.69 285.76L243.65 286.07L242.61 286.36L241.56 286.63L240.5 286.88L239.43 287.12L238.35 287.35L237.27 287.56L236.18 287.75L235.09 287.92L233.99 288.08L232.88 288.22L231.76 288.34L230.64 288.45L229.52 288.54L228.38 288.62L227.25 288.68L226.1 288.72L224.95 288.74L223.8 288.75L222.64 288.74L221.47 288.72L220.3 288.68L219.13 288.62L217.95 288.54L216.77 288.45L215.58 288.34L214.39 288.22L213.19 288.07L211.99 287.92L210.79 287.74L209.58 287.55L208.69 287.39L207.81 287.23L206.94 287.07L206.09 286.9L205.25 286.72L204.43 286.54L203.63 286.36L202.84 286.17L202.07 285.98L201.32 285.79L200.58 285.6L199.87 285.4L199.17 285.21L198.49 285.01L197.83 284.82L197.2 284.63L196.58 284.43L195.98 284.24L195.41 284.06L194.85 283.87L194.32 283.69L193.81 283.51L193.32 283.34L192.86 283.17L192.42 283.01L192 282.86L191.61 282.71L191.24 282.56L190.9 282.43L190.58 282.3L190.29 282.18L190.03 282.07L189.79 281.97L189.58 281.88L189.39 281.81L189.24 281.74L189.11 281.68L189.01 281.64L188.94 281.6L188.9 281.59L185.95 280.22L186.72 277.07L186.73 277.03L186.75 276.95L186.78 276.85L186.81 276.71L186.86 276.55L186.91 276.35L186.97 276.13L187.04 275.88L187.12 275.61L187.21 275.31L187.31 274.98L187.41 274.63L187.53 274.25L187.66 273.85L187.8 273.43L187.94 272.98L188.1 272.51L188.27 272.02L188.45 271.51L188.64 270.99L188.84 270.44L189.05 269.87L189.27 269.28L189.51 268.68L189.76 268.06L190.01 267.43L190.28 266.77L190.56 266.11L190.86 265.43L191.16 264.73L191.48 264.03L191.82 263.31L192.16 262.57L192.52 261.83L192.89 261.08L193.27 260.31L193.67 259.54L194.08 258.76L194.5 257.97L194.94 257.17L195.54 256.11L196.15 255.06L196.77 254.02L197.41 253L198.05 251.99L198.7 250.99L199.37 250.01L200.04 249.04L200.73 248.08L201.42 247.14L202.13 246.21L202.85 245.3L203.57 244.4L204.31 243.52L205.05 242.65L205.81 241.79L206.57 240.95L207.35 240.13L208.13 239.32L208.92 238.53L209.72 237.75L210.53 236.98L211.35 236.23L212.18 235.5L213.01 234.78L213.86 234.08L214.71 233.4L215.57 232.73L216.44 232.07L217.31 231.44L218.2 230.82L219.09 230.21L219.99 229.62L220.9 229.05L221.81 228.5L222.73 227.96L223.66 227.44L224.6 226.94L225.54 226.45L226.49 225.98L227.45 225.53L228.42 225.1L229.4 224.68L230.38 224.27L231.38 223.89L232.38 223.52L233.39 223.16L234.41 222.82L235.44 222.5L236.48 222.2L237.52 221.91L238.57 221.64L239.63 221.38L240.7 221.14L241.77 220.92L242.86 220.71L243.94 220.52L245.04 220.34L246.14 220.19L247.25 220.04L248.37 219.92L249.49 219.81L250.61 219.72L251.75 219.65L252.88 219.59L254.03 219.55L255.18 219.52L256.33 219.51L257.49 219.52L258.66 219.55ZM253.8 227.7L252.81 227.74L251.82 227.79L250.83 227.86L249.82 227.94L248.81 228.04L247.79 228.16L246.77 228.29L245.74 228.44L244.7 228.61L243.66 228.8L242.62 229.01L241.57 229.24L240.52 229.49L239.47 229.76L238.42 230.06L237.37 230.37L236.31 230.71L235.26 231.08L234.2 231.46L233.15 231.88L232.1 232.31L231.05 232.78L230 233.27L228.97 233.78L227.95 234.31L226.96 234.86L225.98 235.43L225.02 236.01L224.08 236.61L223.16 237.23L222.25 237.85L221.37 238.49L220.5 239.15L219.65 239.81L218.82 240.49L218.01 241.17L217.21 241.87L216.43 242.57L215.67 243.28L214.93 244L214.21 244.73L213.5 245.46L212.81 246.19L212.13 246.93L211.47 247.67L210.83 248.42L210.21 249.16L209.6 249.91L209.01 250.65L208.43 251.4L207.87 252.14L207.33 252.89L206.8 253.62L206.29 254.36L205.8 255.09L205.31 255.81L204.85 256.53L204.4 257.24L203.96 257.95L203.54 258.64L203.14 259.33L202.75 260.01L202.37 260.67L202.12 261.12L201.87 261.57L201.63 262.02L201.4 262.46L201.17 262.9L200.94 263.34L200.72 263.78L200.5 264.21L200.29 264.64L200.08 265.06L199.88 265.49L199.68 265.9L199.48 266.32L199.29 266.73L199.11 267.13L198.93 267.53L198.75 267.93L198.58 268.32L198.41 268.71L198.24 269.09L198.09 269.47L197.93 269.84L197.78 270.21L197.63 270.57L197.49 270.92L197.35 271.27L197.22 271.62L197.09 271.95L196.96 272.28L196.84 272.61L196.72 272.93L196.6 273.24L196.49 273.54L196.39 273.84L196.28 274.13L196.18 274.41L196.09 274.68L196 274.95L195.91 275.21L195.83 275.46L196.08 275.55L196.33 275.64L196.6 275.74L196.87 275.84L197.16 275.93L197.45 276.03L197.74 276.14L198.05 276.24L198.37 276.34L198.69 276.45L199.02 276.55L199.35 276.66L199.7 276.77L200.05 276.88L200.41 276.99L200.78 277.1L201.15 277.21L201.53 277.32L201.92 277.43L202.31 277.54L202.72 277.65L203.12 277.75L203.54 277.86L203.96 277.97L204.38 278.08L204.82 278.19L205.26 278.29L205.7 278.4L206.15 278.5L206.61 278.61L207.07 278.71L207.54 278.81L208.01 278.91L208.49 279.01L208.98 279.1L209.47 279.2L209.96 279.29L210.46 279.38L210.96 279.47L211.47 279.55L212.23 279.67L213 279.79L213.79 279.9L214.6 280L215.42 280.1L216.26 280.19L217.11 280.27L217.97 280.35L218.85 280.41L219.75 280.47L220.65 280.52L221.57 280.56L222.5 280.58L223.45 280.6L224.4 280.6L225.36 280.59L226.33 280.56L227.31 280.52L228.3 280.47L229.3 280.4L230.31 280.32L231.32 280.22L232.34 280.11L233.36 279.97L234.39 279.82L235.43 279.65L236.47 279.46L237.51 279.25L238.56 279.02L239.61 278.77L240.66 278.5L241.71 278.21L242.76 277.89L243.82 277.55L244.87 277.19L245.93 276.8L246.98 276.39L248.03 275.95L249.08 275.49L250.12 275L251.16 274.48L252.18 273.95L253.17 273.4L254.15 272.83L255.11 272.25L256.05 271.65L256.97 271.04L257.88 270.41L258.76 269.77L259.63 269.12L260.48 268.45L261.31 267.78L262.12 267.09L262.92 266.4L263.69 265.69L264.45 264.98L265.2 264.26L265.92 263.54L266.63 262.81L267.32 262.07L268 261.33L268.65 260.59L269.3 259.85L269.92 259.1L270.53 258.36L271.12 257.61L271.7 256.86L272.25 256.12L272.8 255.38L273.33 254.64L273.84 253.9L274.33 253.17L274.82 252.45L275.28 251.73L275.73 251.02L276.17 250.32L276.59 249.62L276.99 248.93L277.38 248.26L277.76 247.59L278.01 247.14L278.25 246.69L278.5 246.25L278.73 245.8L278.96 245.36L279.19 244.92L279.41 244.49L279.63 244.05L279.84 243.63L280.05 243.2L280.25 242.78L280.45 242.36L280.65 241.95L280.84 241.54L281.02 241.13L281.2 240.73L281.38 240.33L281.55 239.94L281.72 239.55L281.88 239.17L282.04 238.79L282.2 238.42L282.35 238.06L282.5 237.7L282.64 237.34L282.78 236.99L282.91 236.65L283.04 236.31L283.17 235.98L283.29 235.66L283.41 235.34L283.53 235.03L283.64 234.72L283.74 234.43L283.85 234.14L283.94 233.85L284.04 233.58L284.13 233.31L284.22 233.05L284.3 232.8L284.05 232.71L283.8 232.62L283.53 232.52L283.26 232.43L282.97 232.33L282.68 232.23L282.38 232.13L282.08 232.03L281.76 231.92L281.44 231.82L281.11 231.71L280.77 231.6L280.43 231.5L280.08 231.39L279.72 231.28L279.35 231.17L278.98 231.06L278.6 230.95L278.21 230.84L277.81 230.73L277.41 230.62L277.01 230.51L276.59 230.4L276.17 230.29L275.74 230.18L275.31 230.08L274.87 229.97L274.43 229.86L273.98 229.76L273.52 229.66L273.06 229.55L272.59 229.45L272.12 229.35L271.64 229.26L271.15 229.16L270.66 229.07L270.17 228.98L269.67 228.89L269.16 228.8L268.66 228.71L267.9 228.59L267.13 228.48L266.34 228.37L265.53 228.26L264.71 228.17L263.87 228.07L263.02 227.99L262.16 227.92L261.28 227.85L260.38 227.79L259.47 227.74L258.56 227.71L257.63 227.68L256.68 227.67L255.73 227.67L254.77 227.68L253.8 227.7Z" id="b2c2ZRaoxq"></path><path d="M262.49 238.04C259.74 238.28 257.46 240.09 257.04 242.63C256.53 245.7 258.97 248.66 262.48 249.25C264.32 249.55 266.1 249.14 267.44 248.23C267.57 249.53 267.54 250.85 267.32 252.18C265.78 261.5 255.9 267.62 245.25 265.86C234.61 264.1 227.23 255.12 228.77 245.8C230.32 236.48 240.19 230.36 250.84 232.12C255.51 232.9 259.56 235.06 262.49 238.04Z" id="b21c3v5ETF"></path><path d="M444.42 266.37C436.59 278.07 412.27 275.53 390.14 260.72C368.01 245.91 356.4 224.39 364.23 212.69C372.06 201 396.38 203.53 418.51 218.34C440.64 233.16 452.25 254.68 444.42 266.37Z" id="a1CbP4Vv05"></path><path d="M382.06 201.6L383.25 201.63L384.44 201.67L385.62 201.73L386.8 201.81L387.96 201.9L389.12 202L390.27 202.12L391.42 202.26L392.56 202.42L393.68 202.58L394.8 202.77L395.92 202.97L397.02 203.18L398.12 203.41L399.2 203.66L400.28 203.92L401.35 204.19L402.41 204.48L403.46 204.79L404.5 205.11L405.54 205.44L406.56 205.79L407.57 206.16L408.57 206.54L409.57 206.93L410.55 207.34L411.52 207.77L412.48 208.2L413.43 208.66L414.37 209.12L415.3 209.61L416.22 210.1L417.13 210.61L418.02 211.14L418.91 211.68L419.78 212.23L420.64 212.8L421.49 213.38L422.33 213.98L423.15 214.59L423.96 215.22L424.77 215.86L425.56 216.51L426.34 217.18L427.11 217.87L427.87 218.57L428.63 219.29L429.37 220.02L430.09 220.77L430.81 221.53L431.52 222.31L432.22 223.1L432.9 223.9L433.58 224.72L434.24 225.55L434.89 226.4L435.53 227.26L436.16 228.13L436.78 229.02L437.38 229.92L437.98 230.84L438.56 231.76L439.13 232.7L439.69 233.66L440.23 234.62L440.76 235.6L441.29 236.59L441.79 237.59L442.29 238.61L442.78 239.64L443.25 240.68L443.71 241.73L444.15 242.79L444.58 243.86L445 244.95L445.41 246.05L445.81 247.16L446.19 248.28L446.55 249.41L446.91 250.55L447.08 251.12L447.25 251.69L447.41 252.25L447.57 252.82L447.73 253.38L447.88 253.93L448.02 254.49L448.17 255.04L448.31 255.59L448.44 256.14L448.57 256.68L448.7 257.23L448.83 257.77L448.95 258.3L449.06 258.84L449.17 259.37L449.28 259.9L449.38 260.43L449.48 260.95L449.58 261.47L449.67 261.99L449.76 262.51L449.84 263.02L449.92 263.53L450 264.04L450.07 264.55L450.14 265.05L450.2 265.55L450.26 266.05L450.32 266.55L450.37 267.04L450.42 267.53L450.46 268.02L450.5 268.5L450.54 268.99L450.57 269.47L450.6 269.94L450.62 270.42L450.64 270.89L450.66 271.36L450.74 274.57L447.64 275.36L447.59 275.37L447.52 275.39L447.42 275.42L447.28 275.45L447.12 275.49L446.93 275.53L446.71 275.58L446.46 275.64L446.18 275.7L445.88 275.76L445.55 275.83L445.19 275.9L444.81 275.97L444.4 276.04L443.97 276.12L443.52 276.2L443.04 276.28L442.53 276.36L442.01 276.44L441.46 276.52L440.89 276.6L440.3 276.68L439.69 276.76L439.06 276.84L438.41 276.91L437.74 276.98L437.05 277.05L436.34 277.11L435.62 277.18L434.87 277.23L434.11 277.28L433.34 277.33L432.55 277.37L431.74 277.41L430.91 277.43L430.08 277.46L429.23 277.47L428.36 277.48L427.48 277.47L426.59 277.46L425.4 277.44L424.21 277.39L423.03 277.33L421.86 277.26L420.69 277.17L419.53 277.06L418.38 276.94L417.23 276.8L416.1 276.65L414.97 276.48L413.85 276.3L412.73 276.1L411.63 275.88L410.53 275.65L409.45 275.41L408.37 275.15L407.3 274.87L406.24 274.58L405.19 274.28L404.15 273.96L403.11 273.62L402.09 273.27L401.08 272.91L400.08 272.53L399.08 272.13L398.1 271.72L397.13 271.3L396.17 270.86L395.22 270.41L394.28 269.94L393.35 269.46L392.43 268.96L391.52 268.45L390.63 267.92L389.74 267.38L388.87 266.83L388.01 266.26L387.16 265.68L386.32 265.08L385.5 264.47L384.69 263.85L383.88 263.21L383.09 262.55L382.31 261.88L381.54 261.19L380.78 260.49L380.03 259.77L379.29 259.04L378.56 258.29L377.84 257.53L377.13 256.76L376.43 255.96L375.75 255.16L375.08 254.34L374.41 253.51L373.76 252.66L373.12 251.8L372.49 250.93L371.87 250.04L371.27 249.14L370.68 248.23L370.09 247.3L369.52 246.36L368.97 245.41L368.42 244.44L367.89 243.46L367.37 242.47L366.86 241.47L366.36 240.45L365.88 239.43L365.4 238.39L364.95 237.34L364.5 236.27L364.07 235.2L363.65 234.11L363.24 233.02L362.85 231.91L362.46 230.79L362.1 229.66L361.74 228.52L361.49 227.66L361.25 226.82L361.02 225.98L360.8 225.16L360.59 224.35L360.39 223.55L360.2 222.77L360.02 221.99L359.85 221.23L359.7 220.49L359.55 219.76L359.41 219.04L359.27 218.35L359.15 217.67L359.03 217L358.93 216.35L358.83 215.73L358.74 215.12L358.65 214.53L358.57 213.96L358.5 213.41L358.43 212.88L358.37 212.38L358.32 211.9L358.27 211.44L358.23 211L358.19 210.59L358.15 210.2L358.12 209.84L358.1 209.5L358.07 209.19L358.05 208.91L358.04 208.66L358.03 208.43L358.01 208.23L358.01 208.07L358 207.93L358 207.82L357.99 207.75L357.99 207.7L357.91 204.5L361.01 203.7L361.06 203.69L361.13 203.67L361.23 203.64L361.37 203.61L361.53 203.57L361.73 203.53L361.95 203.48L362.19 203.43L362.47 203.37L362.77 203.3L363.1 203.24L363.46 203.17L363.84 203.09L364.25 203.02L364.68 202.94L365.14 202.86L365.62 202.78L366.12 202.7L366.64 202.62L367.19 202.54L367.76 202.46L368.35 202.38L368.96 202.3L369.59 202.23L370.24 202.15L370.91 202.08L371.6 202.01L372.31 201.95L373.03 201.89L373.78 201.83L374.54 201.78L375.31 201.73L376.11 201.69L376.91 201.66L377.74 201.63L378.57 201.61L379.42 201.59L380.29 201.59L381.17 201.59L382.06 201.6ZM379.73 209.7L379.24 209.71L378.77 209.72L378.29 209.73L377.82 209.74L377.36 209.76L376.9 209.78L376.45 209.8L376 209.82L375.56 209.85L375.12 209.87L374.69 209.9L374.26 209.93L373.84 209.97L373.43 210L373.02 210.03L372.62 210.07L372.23 210.11L371.84 210.15L371.46 210.19L371.09 210.23L370.72 210.27L370.36 210.31L370.01 210.36L369.66 210.4L369.33 210.44L369 210.49L368.67 210.53L368.36 210.58L368.05 210.62L367.75 210.67L367.46 210.71L367.18 210.76L366.9 210.8L366.64 210.85L366.38 210.89L366.41 211.15L366.44 211.42L366.47 211.69L366.51 211.98L366.54 212.27L366.58 212.57L366.62 212.88L366.66 213.19L366.71 213.52L366.76 213.85L366.81 214.18L366.86 214.53L366.92 214.88L366.97 215.24L367.03 215.6L367.1 215.97L367.16 216.35L367.23 216.73L367.3 217.12L367.38 217.51L367.46 217.92L367.54 218.32L367.62 218.73L367.71 219.15L367.8 219.57L367.89 220L367.99 220.43L368.09 220.87L368.19 221.31L368.3 221.76L368.41 222.21L368.53 222.66L368.65 223.12L368.77 223.59L368.89 224.05L369.02 224.52L369.16 225L369.3 225.48L369.44 225.96L369.59 226.44L369.81 227.15L370.04 227.88L370.29 228.62L370.55 229.37L370.82 230.13L371.1 230.91L371.4 231.69L371.71 232.48L372.03 233.28L372.37 234.08L372.72 234.9L373.09 235.71L373.47 236.54L373.87 237.36L374.28 238.2L374.71 239.03L375.15 239.87L375.61 240.71L376.09 241.54L376.58 242.38L377.09 243.22L377.62 244.06L378.16 244.89L378.72 245.72L379.3 246.55L379.9 247.37L380.52 248.19L381.16 249L381.81 249.81L382.49 250.61L383.18 251.4L383.9 252.18L384.63 252.95L385.39 253.71L386.17 254.46L386.96 255.2L387.78 255.92L388.62 256.64L389.49 257.34L390.37 258.02L391.27 258.68L392.18 259.32L393.1 259.93L394.02 260.52L394.95 261.09L395.88 261.63L396.82 262.15L397.77 262.64L398.71 263.12L399.66 263.57L400.62 264L401.57 264.41L402.52 264.8L403.48 265.17L404.44 265.52L405.39 265.85L406.34 266.16L407.3 266.46L408.24 266.74L409.19 267L410.13 267.24L411.07 267.47L412 267.68L412.93 267.88L413.85 268.06L414.76 268.23L415.66 268.38L416.56 268.52L417.45 268.65L418.33 268.77L419.19 268.87L420.05 268.97L420.9 269.05L421.73 269.12L422.55 269.18L423.36 269.23L424.15 269.27L424.93 269.31L425.69 269.33L426.44 269.35L426.94 269.36L427.45 269.37L427.94 269.37L428.44 269.37L428.92 269.36L429.41 269.36L429.89 269.35L430.36 269.34L430.83 269.32L431.29 269.3L431.75 269.29L432.2 269.26L432.65 269.24L433.09 269.22L433.53 269.19L433.96 269.16L434.39 269.13L434.81 269.1L435.22 269.06L435.63 269.03L436.03 268.99L436.42 268.95L436.81 268.92L437.19 268.88L437.56 268.83L437.93 268.79L438.29 268.75L438.64 268.71L438.99 268.66L439.33 268.62L439.66 268.57L439.98 268.53L440.29 268.48L440.6 268.44L440.9 268.39L441.19 268.35L441.47 268.3L441.75 268.26L442.01 268.21L442.27 268.17L442.24 267.91L442.21 267.64L442.18 267.37L442.15 267.08L442.11 266.79L442.07 266.49L442.03 266.18L441.99 265.87L441.94 265.55L441.89 265.22L441.84 264.88L441.79 264.54L441.74 264.18L441.68 263.83L441.62 263.46L441.55 263.09L441.49 262.72L441.42 262.33L441.35 261.94L441.27 261.55L441.2 261.15L441.12 260.74L441.03 260.33L440.94 259.91L440.85 259.49L440.76 259.06L440.66 258.63L440.56 258.19L440.46 257.75L440.35 257.3L440.24 256.85L440.12 256.4L440.01 255.94L439.88 255.48L439.76 255.01L439.63 254.54L439.49 254.06L439.35 253.59L439.21 253.11L439.07 252.62L438.84 251.91L438.61 251.18L438.36 250.44L438.11 249.69L437.83 248.93L437.55 248.16L437.25 247.37L436.94 246.58L436.62 245.79L436.28 244.98L435.93 244.17L435.56 243.35L435.18 242.53L434.78 241.7L434.37 240.87L433.94 240.03L433.5 239.2L433.04 238.36L432.57 237.52L432.07 236.68L431.56 235.84L431.04 235.01L430.49 234.17L429.93 233.34L429.35 232.51L428.75 231.69L428.13 230.87L427.49 230.06L426.84 229.25L426.16 228.46L425.47 227.67L424.75 226.89L424.02 226.11L423.26 225.35L422.49 224.6L421.69 223.86L420.87 223.14L420.03 222.43L419.17 221.73L418.28 221.04L417.38 220.38L416.47 219.74L415.56 219.13L414.63 218.54L413.7 217.97L412.77 217.43L411.83 216.91L410.89 216.42L409.94 215.95L408.99 215.49L408.04 215.06L407.08 214.65L406.13 214.26L405.17 213.89L404.22 213.54L403.26 213.21L402.31 212.9L401.36 212.6L400.41 212.33L399.46 212.07L398.52 211.82L397.58 211.59L396.65 211.38L395.72 211.18L394.81 211L393.89 210.83L392.99 210.68L392.09 210.54L391.2 210.41L390.33 210.29L389.46 210.19L388.6 210.1L387.76 210.01L386.92 209.94L386.1 209.88L385.29 209.83L384.5 209.79L383.72 209.75L382.96 209.73L382.21 209.71L381.71 209.7L381.21 209.7L380.71 209.7L380.22 209.7L379.73 209.7Z" id="eBiowpJE"></path><path d="M495.2 276.53C499.1 290.05 523.03 295.05 548.62 287.68C574.21 280.3 591.83 263.34 587.93 249.82C584.04 236.3 560.1 231.3 534.51 238.67C508.92 246.04 491.31 263.01 495.2 276.53Z" id="g7YtfRMuT"></path><path d="M553.02 230.71L554.11 230.76L555.2 230.83L556.3 230.91L557.4 231.02L558.5 231.13L559.61 231.27L560.72 231.43L561.83 231.6L562.94 231.78L564.06 231.99L565.18 232.21L566.3 232.45L567.42 232.71L568.55 232.98L569.68 233.27L570.81 233.58L571.94 233.91L573.07 234.25L574.2 234.61L575.34 234.99L575.9 235.18L576.46 235.38L577.01 235.57L577.56 235.77L578.11 235.97L578.65 236.18L579.19 236.38L579.72 236.58L580.25 236.79L580.77 237L581.29 237.21L581.81 237.42L582.32 237.64L582.83 237.85L583.33 238.07L583.82 238.29L584.32 238.51L584.81 238.73L585.29 238.96L585.77 239.19L586.25 239.41L586.72 239.64L587.18 239.87L587.64 240.11L588.1 240.34L588.56 240.58L589 240.82L589.45 241.06L589.89 241.3L590.32 241.54L590.75 241.79L591.18 242.03L591.6 242.28L592.02 242.53L592.43 242.79L592.84 243.04L593.25 243.29L593.65 243.55L594.04 243.81L594.43 244.07L597.09 245.87L595.93 248.86L595.91 248.9L595.88 248.97L595.84 249.07L595.79 249.2L595.73 249.35L595.65 249.54L595.56 249.74L595.46 249.98L595.35 250.24L595.22 250.52L595.08 250.83L594.93 251.16L594.77 251.51L594.59 251.88L594.41 252.28L594.2 252.7L593.99 253.13L593.76 253.59L593.52 254.06L593.27 254.55L593 255.06L592.72 255.59L592.43 256.13L592.12 256.69L591.81 257.26L591.47 257.85L591.13 258.45L590.77 259.06L590.39 259.68L590.01 260.32L589.61 260.97L589.19 261.63L588.76 262.29L588.32 262.97L587.86 263.65L587.39 264.35L586.91 265.05L586.41 265.75L585.9 266.47L585.37 267.18L584.65 268.14L583.92 269.08L583.19 270L582.44 270.91L581.69 271.81L580.92 272.69L580.15 273.55L579.37 274.4L578.59 275.24L577.79 276.06L576.99 276.86L576.18 277.65L575.36 278.42L574.54 279.18L573.71 279.92L572.87 280.64L572.02 281.35L571.17 282.04L570.3 282.72L569.44 283.38L568.56 284.02L567.68 284.65L566.8 285.26L565.9 285.85L565 286.43L564.1 286.99L563.19 287.53L562.27 288.06L561.35 288.57L560.42 289.06L559.49 289.53L558.55 289.99L557.6 290.43L556.66 290.85L555.7 291.26L554.74 291.64L553.78 292.01L552.81 292.36L551.84 292.69L550.86 293.01L549.88 293.3L548.89 293.58L547.9 293.84L546.9 294.09L545.89 294.31L544.87 294.52L543.85 294.72L542.83 294.89L541.8 295.05L540.76 295.19L539.72 295.31L538.67 295.42L537.61 295.5L536.56 295.58L535.49 295.63L534.43 295.66L533.35 295.68L532.28 295.69L531.2 295.67L530.11 295.64L529.02 295.59L527.93 295.52L526.83 295.43L525.74 295.33L524.63 295.21L523.53 295.08L522.42 294.92L521.31 294.75L520.19 294.56L519.07 294.36L517.96 294.14L516.83 293.9L515.71 293.64L514.58 293.36L513.46 293.07L512.33 292.76L511.2 292.44L510.07 292.1L508.93 291.74L507.8 291.36L506.96 291.07L506.13 290.77L505.32 290.47L504.52 290.17L503.74 289.87L502.98 289.57L502.23 289.26L501.5 288.96L500.78 288.65L500.08 288.34L499.4 288.04L498.74 287.74L498.1 287.44L497.47 287.14L496.86 286.85L496.28 286.56L495.71 286.27L495.16 285.99L494.63 285.72L494.12 285.45L493.63 285.19L493.17 284.94L492.72 284.69L492.3 284.46L491.9 284.23L491.52 284.01L491.16 283.8L490.82 283.6L490.51 283.42L490.22 283.24L489.96 283.08L489.72 282.93L489.5 282.8L489.31 282.68L489.15 282.57L489 282.48L488.89 282.4L488.8 282.34L488.74 282.3L488.7 282.28L486.05 280.48L487.21 277.49L487.22 277.45L487.25 277.38L487.29 277.28L487.34 277.15L487.41 276.99L487.48 276.81L487.57 276.6L487.67 276.37L487.79 276.11L487.91 275.83L488.05 275.52L488.2 275.19L488.36 274.84L488.54 274.46L488.73 274.07L488.93 273.65L489.14 273.22L489.37 272.76L489.61 272.29L489.86 271.79L490.13 271.29L490.41 270.76L490.7 270.22L491.01 269.66L491.33 269.09L491.66 268.5L492.01 267.9L492.37 267.29L492.74 266.66L493.13 266.03L493.53 265.38L493.94 264.72L494.37 264.05L494.81 263.38L495.27 262.69L495.74 262L496.23 261.3L496.72 260.59L497.24 259.88L497.77 259.16L498.48 258.21L499.21 257.27L499.95 256.34L500.69 255.43L501.45 254.54L502.21 253.66L502.98 252.79L503.76 251.94L504.55 251.11L505.34 250.29L506.14 249.49L506.95 248.7L507.77 247.93L508.6 247.17L509.43 246.43L510.27 245.7L511.12 245L511.97 244.3L512.83 243.63L513.7 242.97L514.57 242.32L515.45 241.7L516.34 241.09L517.23 240.49L518.13 239.92L519.04 239.36L519.95 238.81L520.86 238.29L521.79 237.78L522.71 237.29L523.65 236.81L524.59 236.36L525.53 235.92L526.48 235.5L527.43 235.09L528.39 234.71L529.35 234.34L530.32 233.99L531.29 233.65L532.27 233.34L533.25 233.04L534.24 232.77L535.24 232.5L536.24 232.26L537.25 232.03L538.26 231.82L539.28 231.63L540.31 231.46L541.34 231.3L542.38 231.16L543.42 231.04L544.47 230.93L545.52 230.84L546.58 230.77L547.64 230.72L548.71 230.68L549.78 230.66L550.86 230.66L551.94 230.68L553.02 230.71ZM548.4 238.78L547.37 238.83L546.34 238.89L545.29 238.97L544.25 239.08L543.2 239.2L542.14 239.35L541.08 239.52L540.02 239.72L538.95 239.93L537.89 240.18L536.82 240.44L535.75 240.74L534.67 241.06L533.61 241.4L532.56 241.77L531.53 242.16L530.51 242.56L529.51 242.99L528.53 243.43L527.56 243.9L526.61 244.37L525.67 244.87L524.75 245.38L523.85 245.9L522.96 246.44L522.08 246.98L521.23 247.55L520.38 248.12L519.56 248.7L518.75 249.29L517.95 249.9L517.18 250.5L516.41 251.12L515.67 251.74L514.93 252.37L514.22 253.01L513.52 253.64L512.83 254.28L512.17 254.93L511.51 255.57L510.88 256.22L510.25 256.87L509.65 257.51L509.06 258.16L508.48 258.8L507.92 259.44L507.38 260.07L506.85 260.7L506.34 261.33L505.84 261.95L505.36 262.56L504.9 263.17L504.45 263.77L504.15 264.17L503.85 264.58L503.56 264.98L503.27 265.38L502.99 265.78L502.71 266.17L502.44 266.57L502.18 266.96L501.91 267.35L501.66 267.74L501.4 268.12L501.16 268.5L500.92 268.88L500.68 269.25L500.45 269.62L500.22 269.99L499.99 270.35L499.78 270.71L499.56 271.07L499.35 271.42L499.15 271.77L498.95 272.11L498.76 272.45L498.57 272.78L498.38 273.11L498.2 273.43L498.03 273.75L497.86 274.06L497.69 274.36L497.53 274.66L497.38 274.96L497.22 275.25L497.08 275.53L496.94 275.81L496.8 276.07L496.66 276.34L496.54 276.59L496.41 276.84L496.29 277.08L496.18 277.32L496.41 277.45L496.64 277.58L496.89 277.71L497.14 277.85L497.39 277.99L497.66 278.13L497.93 278.28L498.22 278.43L498.5 278.58L498.8 278.73L499.1 278.89L499.41 279.05L499.73 279.21L500.05 279.37L500.39 279.53L500.72 279.7L501.07 279.86L501.42 280.03L501.78 280.2L502.14 280.37L502.51 280.54L502.89 280.71L503.28 280.88L503.67 281.05L504.06 281.23L504.46 281.4L504.87 281.57L505.29 281.75L505.7 281.92L506.13 282.09L506.56 282.26L507 282.44L507.44 282.61L507.89 282.78L508.34 282.95L508.8 283.12L509.26 283.28L509.73 283.45L510.2 283.61L510.68 283.78L511.39 284.01L512.12 284.24L512.86 284.48L513.62 284.7L514.4 284.93L515.2 285.15L516 285.36L516.83 285.57L517.66 285.77L518.52 285.97L519.38 286.15L520.26 286.33L521.15 286.5L522.06 286.66L522.97 286.81L523.9 286.95L524.84 287.08L525.79 287.19L526.75 287.29L527.71 287.38L528.69 287.46L529.68 287.52L530.67 287.56L531.68 287.59L532.69 287.6L533.71 287.59L534.73 287.57L535.76 287.52L536.8 287.46L537.84 287.37L538.89 287.27L539.94 287.14L540.99 287L542.05 286.83L543.11 286.63L544.18 286.41L545.25 286.17L546.32 285.9L547.39 285.61L548.46 285.29L549.52 284.94L550.57 284.58L551.6 284.19L552.62 283.78L553.62 283.36L554.6 282.91L555.57 282.45L556.53 281.97L557.46 281.48L558.38 280.97L559.29 280.45L560.18 279.91L561.05 279.36L561.91 278.8L562.75 278.23L563.58 277.65L564.39 277.05L565.18 276.45L565.96 275.84L566.72 275.23L567.47 274.6L568.2 273.98L568.92 273.34L569.62 272.7L570.3 272.06L570.97 271.42L571.62 270.77L572.26 270.13L572.88 269.48L573.49 268.84L574.08 268.19L574.65 267.55L575.21 266.91L575.75 266.27L576.28 265.64L576.79 265.02L577.29 264.4L577.77 263.78L578.24 263.18L578.69 262.58L578.99 262.18L579.28 261.77L579.58 261.37L579.86 260.97L580.14 260.57L580.42 260.17L580.69 259.78L580.96 259.39L581.22 259L581.48 258.61L581.73 258.23L581.98 257.85L582.22 257.47L582.46 257.09L582.69 256.72L582.92 256.36L583.14 255.99L583.36 255.63L583.57 255.28L583.78 254.93L583.98 254.58L584.18 254.24L584.38 253.9L584.56 253.57L584.75 253.24L584.93 252.92L585.1 252.6L585.27 252.29L585.44 251.98L585.6 251.68L585.76 251.39L585.91 251.1L586.06 250.82L586.2 250.54L586.34 250.27L586.47 250.01L586.6 249.75L586.72 249.51L586.84 249.26L586.95 249.03L586.73 248.9L586.49 248.77L586.25 248.63L586 248.5L585.74 248.36L585.47 248.21L585.2 248.07L584.92 247.92L584.63 247.77L584.33 247.61L584.03 247.46L583.72 247.3L583.4 247.14L583.08 246.98L582.75 246.82L582.41 246.65L582.06 246.48L581.71 246.32L581.36 246.15L580.99 245.98L580.62 245.81L580.24 245.64L579.86 245.47L579.47 245.29L579.07 245.12L578.67 244.95L578.26 244.77L577.85 244.6L577.43 244.43L577 244.26L576.57 244.08L576.14 243.91L575.69 243.74L575.25 243.57L574.79 243.4L574.33 243.23L573.87 243.07L573.4 242.9L572.93 242.73L572.45 242.57L571.74 242.34L571.01 242.1L570.27 241.87L569.51 241.64L568.73 241.42L567.94 241.2L567.13 240.99L566.31 240.78L565.47 240.58L564.62 240.38L563.75 240.19L562.87 240.01L561.98 239.84L561.08 239.68L560.16 239.53L559.23 239.4L558.3 239.27L557.35 239.15L556.39 239.05L555.42 238.96L554.44 238.89L553.46 238.83L552.46 238.79L551.46 238.76L550.45 238.75L549.43 238.76L548.4 238.78Z" id="aaj9vq7lNL"></path><path d="M389.19 238.21C391.87 237.46 394.78 238.49 396.24 240.9C398.02 243.84 397 247.72 393.96 249.56C392.36 250.53 390.52 250.75 388.87 250.31C389.3 251.67 389.9 253 390.67 254.27C396.06 263.17 407.91 265.85 417.14 260.25C426.36 254.66 429.47 242.91 424.07 234.01C418.67 225.12 406.82 222.44 397.6 228.03C393.55 230.49 390.68 234.14 389.19 238.21Z" id="o9q8zRg6N3"></path><path d="M518.38 260.22C521.06 259.48 523.97 260.51 525.44 262.92C527.22 265.86 526.2 269.73 523.15 271.58C521.55 272.55 519.71 272.77 518.07 272.33C518.5 273.69 519.09 275.02 519.86 276.29C525.26 285.19 537.11 287.86 546.33 282.27C555.56 276.67 558.66 264.93 553.27 256.03C547.87 247.13 536.02 244.46 526.79 250.05C522.74 252.51 519.87 256.15 518.38 260.22Z" id="c1QCCwnRbD"></path><path d="M207.36 423.45L242.99 365.98L211.95 442.99L138.39 391.26L207.36 423.45Z" id="e13YZ2NUHy"></path><path d="M434.03 416.66L392.58 356.93L430.39 438L505.14 377.66L434.03 416.66Z" id="aX8zECq16"></path></defs><g><g><g><use xlink:href="#eD2UU3D9q" opacity="1" fill="#041802" fill-opacity="1"></use></g><g><use xlink:href="#i8lIZrZVX" opacity="1" fill="#bac3b9" fill-opacity="1"></use></g><g><use xlink:href="#a3t88gFfo" opacity="1" fill="#ffffff" fill-opacity="1"></use><g><use xlink:href="#a3t88gFfo" opacity="1" fill-opacity="0" stroke="#000000" stroke-width="1" stroke-opacity="0"></use></g></g><g><use xlink:href="#e8rmBYdQu" opacity="1" fill="#fcf7f7" fill-opacity="1"></use><g><use xlink:href="#e8rmBYdQu" opacity="1" fill-opacity="0" stroke="#000000" stroke-width="1" stroke-opacity="0"></use></g></g><g><use xlink:href="#b2c2ZRaoxq" opacity="1" fill="#fff9f9" fill-opacity="1"></use><g><use xlink:href="#b2c2ZRaoxq" opacity="1" fill-opacity="0" stroke="#000000" stroke-width="1" stroke-opacity="0"></use></g></g><g><use xlink:href="#b21c3v5ETF" opacity="1" fill="#ffffff" fill-opacity="1"></use><g><use xlink:href="#b21c3v5ETF" opacity="1" fill-opacity="0" stroke="#000000" stroke-width="1" stroke-opacity="0"></use></g></g><g><use xlink:href="#a1CbP4Vv05" opacity="1" fill="#fefcfc" fill-opacity="1"></use></g><g><use xlink:href="#eBiowpJE" opacity="1" fill="#0f0101" fill-opacity="1"></use><g><use xlink:href="#eBiowpJE" opacity="1" fill-opacity="0" stroke="#000000" stroke-width="1" stroke-opacity="0"></use></g></g><g><use xlink:href="#g7YtfRMuT" opacity="1" fill="#fefcfc" fill-opacity="1"></use></g><g><use xlink:href="#aaj9vq7lNL" opacity="1" fill="#0f0101" fill-opacity="1"></use><g><use xlink:href="#aaj9vq7lNL" opacity="1" fill-opacity="0" stroke="#000000" stroke-width="1" stroke-opacity="0"></use></g></g><g><use xlink:href="#o9q8zRg6N3" opacity="1" fill="#030000" fill-opacity="1"></use><g><use xlink:href="#o9q8zRg6N3" opacity="1" fill-opacity="0" stroke="#000000" stroke-width="1" stroke-opacity="0"></use></g></g><g><use xlink:href="#c1QCCwnRbD" opacity="1" fill="#030000" fill-opacity="1"></use><g><use xlink:href="#c1QCCwnRbD" opacity="1" fill-opacity="0" stroke="#000000" stroke-width="1" stroke-opacity="0"></use></g></g><g><use xlink:href="#e13YZ2NUHy" opacity="1" fill="#f0eeee" fill-opacity="1"></use><g><use xlink:href="#e13YZ2NUHy" opacity="1" fill-opacity="0" stroke="#000000" stroke-width="1" stroke-opacity="1"></use></g></g><g><use xlink:href="#aX8zECq16" opacity="1" fill="#f0eeee" fill-opacity="1"></use><g><use xlink:href="#aX8zECq16" opacity="1" fill-opacity="0" stroke="#000000" stroke-width="6" stroke-opacity="1"></use></g></g></g></g></svg>